<svg width="248" height="55" viewBox="0 0 248 55" fill="none" xmlns="http://www.w3.org/2000/svg">
<g clip-path="url(#clip0_1214_4)">
<path d="M65.2256 0.339796C61.2876 1.98829 56.959 6.63956 55.5918 12.4824C53.8601 19.8829 61.0652 23.0134 61.6566 21.9883C62.3521 20.7825 60.3655 20.3749 59.9565 16.5347C59.4281 11.5749 61.7354 6.03305 64.6394 3.60137C65.1785 3.14932 65.1532 3.77843 65.1532 4.94134C65.1532 7.02117 65.0382 25.6925 65.0382 29.5892C65.0382 34.8617 64.8204 36.5268 64.4287 38.1723C64.0325 39.8392 63.3947 40.966 63.8776 41.3999C64.4174 41.8851 66.7221 40.7305 68.0561 38.8699C69.6559 36.6383 70.2161 33.9576 70.3167 31.0475C70.4381 27.5388 70.4328 21.971 70.4381 18.7953C70.4426 15.8829 70.4871 7.35456 70.3868 2.2275C70.3623 0.969282 66.8725 -0.349964 65.2256 0.339796Z" fill="#EBEAEA" fill-opacity="0.67"/>
<path d="M205.054 25.0156C204.927 27.7569 204.319 29.8993 203.566 31.4107C202.107 34.3366 199.08 35.2448 197.795 31.0392C197.094 28.7465 197.062 24.9176 197.565 21.7182C198.077 18.4593 199.509 15.9978 201.879 16.2197C204.217 16.4393 205.311 19.4497 205.054 25.016V25.0156ZM165.643 42.0226C165.612 46.5771 164.894 50.5702 163.356 51.7305C161.175 53.3752 158.242 52.1411 158.849 48.8178C159.387 45.8768 161.928 42.8733 165.65 39.2033C165.65 39.2033 165.657 40.0404 165.643 42.0226ZM165.048 24.9888C164.914 27.4857 164.267 29.9935 163.56 31.4107C162.101 34.3366 159.052 35.2512 157.789 31.0392C156.925 28.1611 157.132 24.437 157.559 22.09C158.114 19.0451 159.459 16.2201 161.873 16.2201C164.221 16.2201 165.379 18.7942 165.048 24.9888ZM142.218 24.9512C142.074 27.5949 141.558 29.8051 140.73 31.4107C139.231 34.3166 136.266 35.238 134.959 31.0392C134.016 28.0116 134.337 23.8836 134.729 21.6534C135.311 18.344 136.768 15.9978 139.043 16.2201C141.38 16.4484 142.516 19.4497 142.218 24.9512ZM246.842 28.0395C246.271 28.0395 246.01 28.6279 245.794 29.6179C245.047 33.0625 244.26 33.8397 243.246 33.8397C242.114 33.8397 241.096 32.1347 240.834 28.7209C240.628 26.0365 240.661 21.0948 240.924 16.179C240.978 15.1691 240.699 14.1697 237.989 13.1857C236.822 12.7623 235.127 12.1388 234.282 14.1753C231.897 19.9292 230.964 24.4972 230.744 26.3522C230.733 26.4482 230.615 26.4682 230.595 26.2437C230.454 24.7575 230.142 22.0565 230.103 16.3825C230.095 15.2753 229.861 14.3331 228.638 13.5616C227.844 13.0606 225.435 12.1753 224.568 13.229C223.816 14.0902 222.945 16.4085 222.041 19.157C221.306 21.3909 220.794 22.9015 220.794 22.9015C220.794 22.9015 220.804 16.8748 220.813 14.5886C220.816 13.7263 220.225 13.4388 220.046 13.3868C219.243 13.154 217.66 12.7649 216.988 12.7649C216.159 12.7649 215.956 13.2275 215.956 13.9026C215.956 13.9911 215.825 21.8373 215.825 27.3237C215.825 27.5622 215.825 27.8221 215.826 28.0986C215.368 30.6203 213.881 34.0431 212.264 34.0431C210.644 34.0431 209.881 32.6124 209.881 26.0715C209.881 22.2558 209.995 20.5964 210.051 17.8366C210.084 16.2468 210.148 15.0263 210.144 14.7494C210.132 13.8999 208.662 13.4716 207.978 13.3134C207.291 13.154 206.694 13.0919 206.228 13.1186C205.568 13.1563 205.1 13.5884 205.1 14.1836C205.1 14.503 205.104 15.1096 205.104 15.1096C204.254 13.7745 202.887 12.8455 201.977 12.5762C199.527 11.8491 196.971 12.4933 195.042 15.1902C193.51 17.3325 192.586 19.7597 192.222 23.2462C191.956 25.7954 192.043 28.38 192.516 30.5661C191.944 33.0328 190.885 34.0431 189.724 34.0431C188.039 34.0431 186.818 31.2954 186.96 26.542C187.053 23.4157 187.679 21.2217 188.363 18.0475C188.655 16.6944 188.418 15.9862 187.824 15.3073C187.278 14.6846 186.116 14.3663 184.446 14.7573C183.256 15.0365 181.555 15.3367 179.999 15.5673C179.999 15.5673 180.093 15.1924 180.17 14.5324C180.575 11.0704 176.81 11.3511 175.609 12.4567C174.892 13.1171 174.404 13.8958 174.219 15.2956C173.925 17.5175 175.738 18.5655 175.738 18.5655C175.144 21.2869 173.685 24.8415 172.18 27.4118C171.373 28.7887 170.757 29.8092 169.96 30.8938C169.934 26.5413 169.963 22.1887 170.045 17.837C170.078 16.2472 170.142 15.0591 170.138 14.7818C170.129 14.161 169.766 13.9259 169.011 13.6291C168.343 13.3661 167.554 13.1846 166.735 13.1205C165.701 13.0406 165.079 13.588 165.095 14.236C165.098 14.3584 165.098 15.1096 165.098 15.1096C164.248 13.7745 162.881 12.8455 161.971 12.5762C159.521 11.8491 156.965 12.4933 155.036 15.1902C153.504 17.3325 152.5 20.3395 152.216 23.2198C151.951 25.9039 152 28.1849 152.361 30.1068C151.972 32.0311 150.851 34.0435 149.585 34.0435C147.966 34.0435 147.044 32.6124 147.044 26.0715C147.044 22.2558 147.159 20.5964 147.216 17.8366C147.248 16.2472 147.311 15.0263 147.308 14.7494C147.296 13.8999 145.826 13.472 145.142 13.3134C144.426 13.1476 143.809 13.0874 143.334 13.1224C142.708 13.1687 142.268 13.7289 142.268 14.1467V15.1096C141.418 13.7745 140.051 12.8455 139.141 12.5762C136.691 11.8491 134.149 12.5038 132.206 15.1902C130.939 16.9415 129.914 18.8831 129.386 23.1814C129.233 24.4234 129.166 25.5871 129.175 26.6739C128.67 29.7614 126.438 33.3198 124.613 33.3198C123.546 33.3198 122.528 31.2494 122.528 26.8377C122.528 20.961 122.892 12.5935 122.954 11.7873C122.954 11.7873 125.26 11.7482 125.706 11.7429C126.857 11.7301 127.898 11.7576 129.431 11.6788C130.199 11.64 130.939 8.88363 130.146 8.54271C129.786 8.38825 127.246 8.25339 126.239 8.23192C125.392 8.21308 123.035 8.03829 123.035 8.03829C123.035 8.03829 123.246 2.48442 123.296 1.89788C123.337 1.40853 122.704 1.15688 122.341 1.00431C121.458 0.63137 120.669 0.452431 119.733 0.259554C118.439 -0.00715783 117.852 0.253904 117.738 1.34449C117.565 3.00014 117.476 7.84955 117.476 7.84955C116.527 7.84955 113.284 7.66421 112.335 7.66421C111.453 7.66421 110.501 11.4554 111.721 11.5022C113.124 11.5564 115.569 11.6039 117.19 11.6521C117.19 11.6521 117.117 20.1575 117.117 22.7839C117.117 23.0627 117.119 23.3321 117.12 23.5931C116.228 28.2399 113.086 30.7503 113.086 30.7503C113.761 27.6759 112.382 25.3671 109.899 23.4127C108.984 22.6928 107.178 21.3295 105.158 19.8354C105.158 19.8354 106.328 18.6827 107.366 16.3636C108.101 14.7204 108.133 12.841 106.328 12.4262C103.345 11.7406 100.887 13.9297 100.153 16.2668C99.5845 18.0773 99.8876 19.4203 101.001 20.8156C101.082 20.9177 101.171 21.0221 101.261 21.1268C100.588 22.4234 99.6633 24.1695 98.88 25.5234C96.7057 29.283 95.0633 32.256 93.822 32.256C92.8299 32.256 92.8431 29.237 92.8431 26.4105C92.8431 23.974 93.0233 20.3104 93.1673 16.5181C93.2148 15.2636 92.5867 14.549 91.535 13.9018C90.8957 13.5085 89.5315 12.7355 88.7414 12.7355C87.5586 12.7355 84.1464 12.8964 80.9227 22.2162C80.5163 23.3908 79.7179 25.5313 79.7179 25.5313L79.7869 14.3237C79.7869 14.0608 79.6467 13.8069 79.3259 13.6332C78.7827 13.3383 77.3318 12.7355 76.0415 12.7355C75.4271 12.7355 75.1199 13.0211 75.1199 13.5906L75.0075 31.1251C75.0075 32.4575 75.0422 34.0118 75.1742 34.6914C75.3053 35.3718 75.5183 35.9255 75.7814 36.2548C76.0449 36.5837 76.3491 36.8349 76.8508 36.9382C77.3179 37.0342 79.8751 37.3623 80.0082 36.3859C80.1673 35.2151 80.1737 33.9493 81.5164 29.2276C83.607 21.8764 86.3323 18.2901 87.614 17.0161C87.8383 16.7938 88.0938 16.7803 88.0814 17.1446C88.0271 18.7561 87.8345 22.7839 87.7052 26.2045C87.358 35.3605 89.0245 37.0576 91.4065 37.0576C93.2287 37.0576 95.7973 35.2482 98.5505 30.6682C100.085 28.1158 101.612 25.5591 103.132 22.9983C103.966 23.7702 104.903 24.6008 105.838 25.4884C108.013 27.5512 108.727 29.5116 108.253 31.3711C107.891 32.7924 106.526 34.2575 104.098 32.8339C103.39 32.4184 103.088 32.097 102.376 31.6288C101.994 31.3775 101.41 31.3022 101.06 31.5659C100.15 32.2507 99.6301 33.1224 99.3331 34.2013C99.0443 35.2512 100.096 35.8061 101.187 36.2917C102.126 36.7095 104.145 37.0881 105.432 37.131C110.447 37.2987 114.465 34.711 117.262 28.0361C117.763 33.8009 119.893 37.0628 123.595 37.0628C126.07 37.0628 128.552 33.8657 129.637 30.7205C129.948 32.0025 130.41 33.1175 131.005 34.0604C133.858 38.5772 139.392 37.6053 142.171 33.7696C143.031 32.5845 143.161 32.1588 143.161 32.1588C143.567 35.7801 146.485 37.0455 148.156 37.0455C150.028 37.0455 151.96 36.1614 153.314 33.1145C153.473 33.4453 153.646 33.7613 153.835 34.0604C156.688 38.5772 162.222 37.6053 165.001 33.7696C165.133 33.5896 165.246 33.4268 165.345 33.2799L165.427 35.6588L162.868 38.0046C158.578 41.9337 155.32 44.9135 155.08 48.3842C154.775 52.8094 158.364 54.4541 161.083 54.6696C163.966 54.8983 166.439 53.3055 167.957 51.0765C169.293 49.1142 170.167 44.8913 170.103 40.7207C170.077 39.0504 170.035 36.9268 170.002 34.6504C171.508 32.9028 173.205 30.6938 174.767 28.1088C176.469 25.2913 178.293 21.5076 179.228 18.5629C179.228 18.5629 180.813 18.5768 182.504 18.4661C183.045 18.4307 183.201 18.5414 183.101 18.9373C182.98 19.4165 180.963 27.1892 182.804 32.3671C184.063 35.912 186.903 37.0519 188.587 37.0519C190.558 37.0519 192.443 35.5647 193.453 33.3564C193.575 33.6024 193.702 33.8404 193.841 34.0608C196.694 38.5776 202.208 37.5993 205.007 33.7696C205.639 32.9054 205.998 32.1588 205.998 32.1588C206.598 35.9071 209.515 37.0647 211.186 37.0647C212.926 37.0647 214.577 36.3516 215.917 33.1831C215.974 34.5784 216.062 35.7191 216.201 36.0785C216.285 36.2989 216.78 36.5746 217.14 36.708C218.732 37.2979 220.355 37.0191 220.956 36.8978C221.372 36.8135 221.697 36.4797 221.741 35.6185C221.858 33.3564 221.786 29.5557 222.472 26.7308C223.624 21.9906 224.699 20.1518 225.208 19.2417C225.494 18.7313 225.815 18.6473 225.827 19.1871C225.851 20.2796 225.905 23.4865 226.352 27.7961C226.68 30.965 227.117 32.8384 227.453 33.4317C228.414 35.1269 229.599 35.2072 230.565 35.2072C231.18 35.2072 232.464 35.0376 232.349 33.9587C232.293 33.4328 232.391 30.1826 233.527 25.5125C234.268 22.4626 235.505 19.7073 235.951 18.6996C236.115 18.3282 236.192 18.6209 236.189 18.6782C236.095 20.7783 235.884 27.648 236.74 31.4054C237.901 36.4951 241.259 37.0647 242.429 37.0647C244.926 37.0647 246.969 35.1661 247.657 30.1701C247.823 28.9677 247.577 28.0395 246.842 28.0395Z" fill="#EBEAEA" fill-opacity="0.67"/>
</g>
<g clip-path="url(#clip1_1214_4)">
<path d="M22.5 0C16.3875 0 15.6244 0.028125 13.2244 0.135C10.8281 0.2475 9.19687 0.624375 7.7625 1.18125C6.28312 1.755 5.02688 2.52562 3.77625 3.77625C2.52562 5.02688 1.75312 6.28125 1.18125 7.7625C0.624375 9.19687 0.245625 10.8281 0.135 13.2244C0.0225 15.6244 0 16.3875 0 22.5C0 28.6125 0.028125 29.3756 0.135 31.7756C0.2475 34.17 0.624375 35.8031 1.18125 37.2375C1.74617 38.7391 2.63174 40.0995 3.77625 41.2238C4.89989 42.3691 6.26043 43.2547 7.7625 43.8188C9.19875 44.3738 10.83 44.7544 13.2244 44.865C15.6244 44.9775 16.3875 45 22.5 45C28.6125 45 29.3756 44.9719 31.7756 44.865C34.17 44.7525 35.8031 44.3738 37.2375 43.8188C38.7387 43.2531 40.099 42.3676 41.2238 41.2238C42.3694 40.1004 43.2552 38.7398 43.8188 37.2375C44.3738 35.8031 44.7544 34.17 44.865 31.7756C44.9775 29.3756 45 28.6125 45 22.5C45 16.3875 44.9719 15.6244 44.865 13.2244C44.7525 10.83 44.3738 9.195 43.8188 7.7625C43.2536 6.26104 42.368 4.90074 41.2238 3.77625C40.1009 2.62995 38.7401 1.74411 37.2375 1.18125C35.8031 0.624375 34.17 0.245625 31.7756 0.135C29.3756 0.0225 28.6125 0 22.5 0ZM22.5 4.05C28.5056 4.05 29.2219 4.08 31.5938 4.18313C33.7875 4.28625 34.9781 4.65 35.7694 4.96125C36.8231 5.36812 37.5694 5.85563 38.3606 6.64125C39.1462 7.42875 39.6338 8.17688 40.0406 9.23063C40.3481 10.0219 40.7156 11.2125 40.815 13.4062C40.9219 15.78 40.9462 16.4925 40.9462 22.5C40.9462 28.5075 40.9181 29.2219 40.8075 31.5938C40.6931 33.7875 40.3275 34.9781 40.0181 35.7694C39.6521 36.7458 39.0768 37.6303 38.3325 38.3606C37.6052 39.1056 36.7214 39.6794 35.745 40.0406C34.9575 40.3481 33.7481 40.7156 31.5544 40.815C29.1656 40.9219 28.4625 40.9462 22.4438 40.9462C16.4231 40.9462 15.72 40.9181 13.3331 40.8075C11.1375 40.6931 9.92813 40.3275 9.14062 40.0181C8.16357 39.6566 7.28002 39.0806 6.555 38.3325C5.80234 37.6101 5.22509 36.725 4.8675 35.745C4.55813 34.9575 4.19438 33.7481 4.08 31.5544C3.99563 29.1919 3.96563 28.4625 3.96563 22.4719C3.96563 16.4794 3.99563 15.7481 4.08 13.3575C4.19438 11.1638 4.55813 9.95625 4.8675 9.16875C5.26125 8.1 5.76562 7.36875 6.555 6.57938C7.34063 5.79375 8.07375 5.2875 9.14062 4.89563C9.92813 4.58437 11.1113 4.21875 13.305 4.10625C15.6956 4.02187 16.3988 3.99375 22.4156 3.99375L22.5 4.05ZM22.5 10.9462C20.9827 10.9462 19.4803 11.2451 18.0786 11.8257C16.6768 12.4064 15.4031 13.2574 14.3303 14.3303C13.2574 15.4031 12.4064 16.6768 11.8257 18.0786C11.2451 19.4803 10.9462 20.9827 10.9462 22.5C10.9462 24.0173 11.2451 25.5197 11.8257 26.9214C12.4064 28.3232 13.2574 29.5969 14.3303 30.6697C15.4031 31.7426 16.6768 32.5936 18.0786 33.1743C19.4803 33.7549 20.9827 34.0538 22.5 34.0538C25.5642 34.0538 28.503 32.8365 30.6697 30.6697C32.8365 28.503 34.0538 25.5642 34.0538 22.5C34.0538 19.4358 32.8365 16.497 30.6697 14.3303C28.503 12.1635 25.5642 10.9462 22.5 10.9462ZM22.5 30C18.3563 30 15 26.6437 15 22.5C15 18.3563 18.3563 15 22.5 15C26.6437 15 30 18.3563 30 22.5C30 26.6437 26.6437 30 22.5 30ZM37.2113 10.4906C37.1852 11.1893 36.8893 11.8507 36.3858 12.3358C35.8823 12.8208 35.2104 13.0919 34.5112 13.0919C33.8121 13.0919 33.1402 12.8208 32.6367 12.3358C32.1332 11.8507 31.8373 11.1893 31.8112 10.4906C31.8112 9.77454 32.0957 9.08779 32.6021 8.58144C33.1084 8.07509 33.7952 7.79063 34.5112 7.79063C35.2273 7.79063 35.9141 8.07509 36.4204 8.58144C36.9268 9.08779 37.2113 9.77454 37.2113 10.4906Z" fill="#A2A0AB"/>
</g>
<defs>
<clipPath id="clip0_1214_4">
<rect x="55" width="193" height="55" rx="10" fill="white"/>
</clipPath>
<clipPath id="clip1_1214_4">
<rect width="45" height="45" fill="white"/>
</clipPath>
</defs>
</svg>
